<svg width="28" height="28" viewBox="0 0 28 28" fill="none" xmlns="http://www.w3.org/2000/svg">
<path fill-rule="evenodd" clip-rule="evenodd" d="M3.5 0C2.57174 0 1.6815 0.368749 1.02513 1.02513C0.368749 1.6815 0 2.57174 0 3.5V22.75C0 24.1424 0.553124 25.4777 1.53769 26.4623C2.52226 27.4469 3.85761 28 5.25 28C6.64239 28 7.97774 27.4469 8.96231 26.4623C9.94688 25.4777 10.5 24.1424 10.5 22.75V3.5C10.5 2.57174 10.1313 1.6815 9.47487 1.02513C8.8185 0.368749 7.92826 0 7 0H3.5ZM5.25 24.5C5.71413 24.5 6.15925 24.3156 6.48744 23.9874C6.81562 23.6592 7 23.2141 7 22.75C7 22.2859 6.81562 21.8408 6.48744 21.5126C6.15925 21.1844 5.71413 21 5.25 21C4.78587 21 4.34075 21.1844 4.01256 21.5126C3.68438 21.8408 3.5 22.2859 3.5 22.75C3.5 23.2141 3.68438 23.6592 4.01256 23.9874C4.34075 24.3156 4.78587 24.5 5.25 24.5ZM14 21.4253L22.575 12.8503C23.2311 12.1939 23.5998 11.3038 23.5998 10.3757C23.5998 9.44767 23.2311 8.5576 22.575 7.90125L20.0987 5.425C19.4424 4.76885 18.5523 4.40025 17.6243 4.40025C16.6962 4.40025 15.8061 4.76885 15.1497 5.425L14 6.57475V21.4253ZM24.5 28H12.3743L22.8743 17.5H24.5C25.4283 17.5 26.3185 17.8688 26.9749 18.5251C27.6312 19.1815 28 20.0717 28 21V24.5C28 25.4283 27.6312 26.3185 26.9749 26.9749C26.3185 27.6312 25.4283 28 24.5 28Z" fill="black"/>
</svg>
