<svg width="175" height="92" viewBox="0 0 175 92" fill="none" xmlns="http://www.w3.org/2000/svg">
<path d="M56.304 51.576C57.4987 51.7893 58.512 52.4187 59.344 53.464C60.176 54.5093 60.592 55.6933 60.592 57.016C60.592 58.1467 60.2933 59.1707 59.696 60.088C59.12 60.984 58.2773 61.6987 57.168 62.232C56.0587 62.744 54.768 63 53.296 63H44.4V40.76H52.88C54.3947 40.76 55.696 41.016 56.784 41.528C57.872 42.04 58.6933 42.7333 59.248 43.608C59.8027 44.4613 60.08 45.4213 60.08 46.488C60.08 47.768 59.7387 48.8347 59.056 49.688C58.3733 50.5413 57.456 51.1707 56.304 51.576ZM48.048 50.104H52.56C53.7547 50.104 54.6827 49.8373 55.344 49.304C56.0267 48.7493 56.368 47.96 56.368 46.936C56.368 45.9333 56.0267 45.1547 55.344 44.6C54.6827 44.024 53.7547 43.736 52.56 43.736H48.048V50.104ZM52.976 60.024C54.2133 60.024 55.184 59.7253 55.888 59.128C56.592 58.5307 56.944 57.6987 56.944 56.632C56.944 55.544 56.5707 54.68 55.824 54.04C55.0773 53.4 54.0853 53.08 52.848 53.08H48.048V60.024H52.976ZM68.2043 47.928C68.7376 47.032 69.4416 46.3387 70.3163 45.848C71.2123 45.336 72.2683 45.08 73.4843 45.08V48.856H72.5563C71.1269 48.856 70.0389 49.2187 69.2923 49.944C68.5669 50.6693 68.2043 51.928 68.2043 53.72V63H64.5563V45.368H68.2043V47.928ZM78.6935 43.032C78.0322 43.032 77.4775 42.808 77.0295 42.36C76.5815 41.912 76.3575 41.3573 76.3575 40.696C76.3575 40.0347 76.5815 39.48 77.0295 39.032C77.4775 38.584 78.0322 38.36 78.6935 38.36C79.3335 38.36 79.8775 38.584 80.3255 39.032C80.7735 39.48 80.9975 40.0347 80.9975 40.696C80.9975 41.3573 80.7735 41.912 80.3255 42.36C79.8775 42.808 79.3335 43.032 78.6935 43.032ZM80.4855 45.368V63H76.8375V45.368H80.4855ZM91.675 63.288C90.2883 63.288 89.0403 63.0427 87.931 62.552C86.843 62.04 85.979 61.3573 85.339 60.504C84.699 59.6293 84.3577 58.6587 84.315 57.592H88.091C88.155 58.3387 88.507 58.968 89.147 59.48C89.8083 59.9707 90.6297 60.216 91.611 60.216C92.635 60.216 93.4243 60.024 93.979 59.64C94.555 59.2347 94.843 58.7227 94.843 58.104C94.843 57.4427 94.523 56.952 93.883 56.632C93.2643 56.312 92.2723 55.96 90.907 55.576C89.5843 55.2133 88.507 54.8613 87.675 54.52C86.843 54.1787 86.1177 53.656 85.499 52.952C84.9017 52.248 84.603 51.32 84.603 50.168C84.603 49.2293 84.8803 48.376 85.435 47.608C85.9897 46.8187 86.779 46.2 87.803 45.752C88.8483 45.304 90.043 45.08 91.387 45.08C93.3923 45.08 95.003 45.592 96.219 46.616C97.4563 47.6187 98.1177 48.9947 98.203 50.744H94.555C94.491 49.9547 94.171 49.3253 93.595 48.856C93.019 48.3867 92.2403 48.152 91.259 48.152C90.299 48.152 89.563 48.3333 89.051 48.696C88.539 49.0587 88.283 49.5387 88.283 50.136C88.283 50.6053 88.4537 51 88.795 51.32C89.1363 51.64 89.5523 51.896 90.043 52.088C90.5337 52.2587 91.259 52.4827 92.219 52.76C93.499 53.1013 94.5443 53.4533 95.355 53.816C96.187 54.1573 96.9017 54.6693 97.499 55.352C98.0963 56.0347 98.4057 56.9413 98.427 58.072C98.427 59.0747 98.1497 59.9707 97.595 60.76C97.0403 61.5493 96.251 62.168 95.227 62.616C94.2243 63.064 93.0403 63.288 91.675 63.288ZM109.345 54.2L117.473 63H112.545L106.017 55.416V63H102.369V39.32H106.017V53.08L112.417 45.368H117.473L109.345 54.2Z" fill="#111111"/>
<path d="M51.328 74.816V75.744H46.4V79.92H50.56V80.848H46.4V86H45.28V74.816H51.328ZM60.1946 86.128C59.3733 86.128 58.632 85.9467 57.9706 85.584C57.32 85.2107 56.8026 84.688 56.4186 84.016C56.0453 83.3333 55.8586 82.5387 55.8586 81.632C55.8586 80.7253 56.0506 79.936 56.4346 79.264C56.8186 78.5813 57.3413 78.0587 58.0026 77.696C58.664 77.3227 59.4053 77.136 60.2266 77.136C61.048 77.136 61.7893 77.3227 62.4506 77.696C63.1226 78.0587 63.6453 78.5813 64.0186 79.264C64.4026 79.936 64.5946 80.7253 64.5946 81.632C64.5946 82.528 64.4026 83.3173 64.0186 84C63.6346 84.6827 63.1066 85.2107 62.4346 85.584C61.7626 85.9467 61.016 86.128 60.1946 86.128ZM60.1946 85.152C60.7706 85.152 61.304 85.024 61.7946 84.768C62.2853 84.5013 62.68 84.1067 62.9786 83.584C63.288 83.0507 63.4426 82.4 63.4426 81.632C63.4426 80.864 63.2933 80.2187 62.9946 79.696C62.696 79.1627 62.3013 78.768 61.8106 78.512C61.32 78.2453 60.7866 78.112 60.2106 78.112C59.6346 78.112 59.1013 78.2453 58.6106 78.512C58.12 78.768 57.7253 79.1627 57.4266 79.696C57.1386 80.2187 56.9946 80.864 56.9946 81.632C56.9946 82.4 57.1386 83.0507 57.4266 83.584C57.7253 84.1067 58.1146 84.5013 58.5946 84.768C59.0853 85.024 59.6186 85.152 60.1946 85.152ZM69.3242 81.632C69.3242 80.7253 69.5056 79.936 69.8682 79.264C70.2309 78.5813 70.7322 78.0587 71.3722 77.696C72.0122 77.3227 72.7429 77.136 73.5642 77.136C74.6416 77.136 75.5269 77.4027 76.2203 77.936C76.9242 78.4693 77.3776 79.1947 77.5802 80.112H76.3802C76.2309 79.4827 75.9056 78.992 75.4043 78.64C74.9136 78.2773 74.3003 78.096 73.5642 78.096C72.9776 78.096 72.4496 78.2293 71.9802 78.496C71.5109 78.7627 71.1376 79.1627 70.8602 79.696C70.5936 80.2187 70.4602 80.864 70.4602 81.632C70.4602 82.4 70.5936 83.0507 70.8602 83.584C71.1376 84.1173 71.5109 84.5173 71.9802 84.784C72.4496 85.0507 72.9776 85.184 73.5642 85.184C74.3003 85.184 74.9136 85.008 75.4043 84.656C75.9056 84.2933 76.2309 83.792 76.3802 83.152H77.5802C77.3776 84.048 76.9242 84.768 76.2203 85.312C75.5162 85.856 74.6309 86.128 73.5642 86.128C72.7429 86.128 72.0122 85.9467 71.3722 85.584C70.7322 85.2107 70.2309 84.688 69.8682 84.016C69.5056 83.3333 69.3242 82.5387 69.3242 81.632ZM90.4167 77.264V86H89.2967V84.464C89.0407 85.008 88.6461 85.424 88.1127 85.712C87.5794 86 86.9821 86.144 86.3207 86.144C85.2754 86.144 84.4221 85.824 83.7607 85.184C83.0994 84.5333 82.7687 83.5947 82.7687 82.368V77.264H83.8727V82.24C83.8727 83.1893 84.1074 83.9147 84.5767 84.416C85.0567 84.9173 85.7074 85.168 86.5287 85.168C87.3714 85.168 88.0434 84.9013 88.5447 84.368C89.0461 83.8347 89.2967 83.0507 89.2967 82.016V77.264H90.4167ZM99.1817 86.128C98.1791 86.128 97.3577 85.8987 96.7177 85.44C96.0884 84.9707 95.7364 84.336 95.6617 83.536H96.8137C96.8671 84.0267 97.0964 84.4267 97.5017 84.736C97.9177 85.0347 98.4724 85.184 99.1657 85.184C99.7737 85.184 100.248 85.04 100.59 84.752C100.942 84.464 101.118 84.1067 101.118 83.68C101.118 83.3813 101.022 83.136 100.83 82.944C100.638 82.752 100.392 82.6027 100.094 82.496C99.8057 82.3787 99.4111 82.256 98.9097 82.128C98.2591 81.9573 97.7311 81.7867 97.3257 81.616C96.9204 81.4453 96.5737 81.1947 96.2857 80.864C96.0084 80.5227 95.8697 80.0693 95.8697 79.504C95.8697 79.0773 95.9977 78.6827 96.2537 78.32C96.5097 77.9573 96.8724 77.6693 97.3417 77.456C97.8111 77.2427 98.3444 77.136 98.9417 77.136C99.8804 77.136 100.638 77.376 101.214 77.856C101.79 78.3253 102.099 78.976 102.142 79.808H101.022C100.99 79.296 100.787 78.8853 100.414 78.576C100.051 78.256 99.5497 78.096 98.9097 78.096C98.3444 78.096 97.8857 78.2293 97.5337 78.496C97.1817 78.7627 97.0057 79.0933 97.0057 79.488C97.0057 79.8293 97.1071 80.112 97.3097 80.336C97.5231 80.5493 97.7844 80.72 98.0937 80.848C98.4031 80.9653 98.8191 81.0987 99.3417 81.248C99.9711 81.4187 100.472 81.584 100.846 81.744C101.219 81.904 101.539 82.1387 101.806 82.448C102.072 82.7573 102.211 83.168 102.222 83.68C102.222 84.1493 102.094 84.5707 101.838 84.944C101.582 85.3067 101.224 85.5947 100.766 85.808C100.307 86.0213 99.7791 86.128 99.1817 86.128ZM108.634 79.184C108.911 78.5973 109.349 78.112 109.946 77.728C110.554 77.3333 111.274 77.136 112.106 77.136C112.895 77.136 113.605 77.3227 114.234 77.696C114.874 78.0587 115.37 78.5813 115.722 79.264C116.085 79.936 116.266 80.72 116.266 81.616C116.266 82.512 116.085 83.3013 115.722 83.984C115.37 84.6667 114.874 85.1947 114.234 85.568C113.605 85.9413 112.895 86.128 112.106 86.128C111.285 86.128 110.57 85.936 109.962 85.552C109.354 85.1573 108.911 84.6667 108.634 84.08V90.128H107.53V77.264H108.634V79.184ZM115.13 81.616C115.13 80.8907 114.986 80.2667 114.698 79.744C114.421 79.2107 114.037 78.8053 113.546 78.528C113.055 78.2507 112.501 78.112 111.882 78.112C111.285 78.112 110.735 78.256 110.234 78.544C109.743 78.832 109.354 79.2427 109.066 79.776C108.778 80.3093 108.634 80.928 108.634 81.632C108.634 82.336 108.778 82.9547 109.066 83.488C109.354 84.0213 109.743 84.432 110.234 84.72C110.735 85.008 111.285 85.152 111.882 85.152C112.501 85.152 113.055 85.0133 113.546 84.736C114.037 84.448 114.421 84.0373 114.698 83.504C114.986 82.96 115.13 82.3307 115.13 81.616ZM121.015 81.616C121.015 80.72 121.191 79.936 121.543 79.264C121.906 78.5813 122.402 78.0587 123.031 77.696C123.671 77.3227 124.391 77.136 125.191 77.136C126.023 77.136 126.738 77.328 127.335 77.712C127.943 78.096 128.38 78.5867 128.647 79.184V77.264H129.767V86H128.647V84.064C128.37 84.6613 127.927 85.1573 127.319 85.552C126.722 85.936 126.007 86.128 125.175 86.128C124.386 86.128 123.671 85.9413 123.031 85.568C122.402 85.1947 121.906 84.6667 121.543 83.984C121.191 83.3013 121.015 82.512 121.015 81.616ZM128.647 81.632C128.647 80.928 128.503 80.3093 128.215 79.776C127.927 79.2427 127.532 78.832 127.031 78.544C126.54 78.256 125.996 78.112 125.399 78.112C124.78 78.112 124.226 78.2507 123.735 78.528C123.244 78.8053 122.855 79.2107 122.567 79.744C122.29 80.2667 122.151 80.8907 122.151 81.616C122.151 82.3307 122.29 82.96 122.567 83.504C122.855 84.0373 123.244 84.448 123.735 84.736C124.226 85.0133 124.78 85.152 125.399 85.152C125.996 85.152 126.54 85.008 127.031 84.72C127.532 84.432 127.927 84.0213 128.215 83.488C128.503 82.9547 128.647 82.336 128.647 81.632ZM135.012 81.632C135.012 80.7253 135.193 79.936 135.556 79.264C135.918 78.5813 136.42 78.0587 137.06 77.696C137.7 77.3227 138.43 77.136 139.252 77.136C140.329 77.136 141.214 77.4027 141.908 77.936C142.612 78.4693 143.065 79.1947 143.268 80.112H142.068C141.918 79.4827 141.593 78.992 141.092 78.64C140.601 78.2773 139.988 78.096 139.252 78.096C138.665 78.096 138.137 78.2293 137.668 78.496C137.198 78.7627 136.825 79.1627 136.548 79.696C136.281 80.2187 136.148 80.864 136.148 81.632C136.148 82.4 136.281 83.0507 136.548 83.584C136.825 84.1173 137.198 84.5173 137.668 84.784C138.137 85.0507 138.665 85.184 139.252 85.184C139.988 85.184 140.601 85.008 141.092 84.656C141.593 84.2933 141.918 83.792 142.068 83.152H143.268C143.065 84.048 142.612 84.768 141.908 85.312C141.204 85.856 140.318 86.128 139.252 86.128C138.43 86.128 137.7 85.9467 137.06 85.584C136.42 85.2107 135.918 84.688 135.556 84.016C135.193 83.3333 135.012 82.5387 135.012 81.632ZM156.44 81.184C156.44 81.568 156.43 81.8613 156.408 82.064H149.16C149.192 82.7253 149.352 83.2907 149.64 83.76C149.928 84.2293 150.307 84.5867 150.776 84.832C151.246 85.0667 151.758 85.184 152.312 85.184C153.038 85.184 153.646 85.008 154.136 84.656C154.638 84.304 154.968 83.8293 155.128 83.232H156.312C156.099 84.0853 155.64 84.784 154.936 85.328C154.243 85.8613 153.368 86.128 152.312 86.128C151.491 86.128 150.755 85.9467 150.104 85.584C149.454 85.2107 148.942 84.688 148.568 84.016C148.206 83.3333 148.024 82.5387 148.024 81.632C148.024 80.7253 148.206 79.9307 148.568 79.248C148.931 78.5653 149.438 78.0427 150.088 77.68C150.739 77.3173 151.48 77.136 152.312 77.136C153.144 77.136 153.87 77.3173 154.488 77.68C155.118 78.0427 155.598 78.5333 155.928 79.152C156.27 79.76 156.44 80.4373 156.44 81.184ZM155.304 81.152C155.315 80.5013 155.182 79.9467 154.904 79.488C154.638 79.0293 154.27 78.6827 153.8 78.448C153.331 78.2133 152.819 78.096 152.264 78.096C151.432 78.096 150.723 78.3627 150.136 78.896C149.55 79.4293 149.224 80.1813 149.16 81.152H155.304ZM164.697 86.128C163.695 86.128 162.873 85.8987 162.233 85.44C161.604 84.9707 161.252 84.336 161.177 83.536H162.329C162.383 84.0267 162.612 84.4267 163.017 84.736C163.433 85.0347 163.988 85.184 164.681 85.184C165.289 85.184 165.764 85.04 166.105 84.752C166.457 84.464 166.633 84.1067 166.633 83.68C166.633 83.3813 166.537 83.136 166.345 82.944C166.153 82.752 165.908 82.6027 165.609 82.496C165.321 82.3787 164.927 82.256 164.425 82.128C163.775 81.9573 163.247 81.7867 162.841 81.616C162.436 81.4453 162.089 81.1947 161.801 80.864C161.524 80.5227 161.385 80.0693 161.385 79.504C161.385 79.0773 161.513 78.6827 161.769 78.32C162.025 77.9573 162.388 77.6693 162.857 77.456C163.327 77.2427 163.86 77.136 164.457 77.136C165.396 77.136 166.153 77.376 166.729 77.856C167.305 78.3253 167.615 78.976 167.657 79.808H166.537C166.505 79.296 166.303 78.8853 165.929 78.576C165.567 78.256 165.065 78.096 164.425 78.096C163.86 78.096 163.401 78.2293 163.049 78.496C162.697 78.7627 162.521 79.0933 162.521 79.488C162.521 79.8293 162.623 80.112 162.825 80.336C163.039 80.5493 163.3 80.72 163.609 80.848C163.919 80.9653 164.335 81.0987 164.857 81.248C165.487 81.4187 165.988 81.584 166.361 81.744C166.735 81.904 167.055 82.1387 167.321 82.448C167.588 82.7573 167.727 83.168 167.737 83.68C167.737 84.1493 167.609 84.5707 167.353 84.944C167.097 85.3067 166.74 85.5947 166.281 85.808C165.823 86.0213 165.295 86.128 164.697 86.128ZM173.238 86.08C173.003 86.08 172.806 86 172.646 85.84C172.496 85.68 172.422 85.4827 172.422 85.248C172.422 85.0133 172.496 84.8213 172.646 84.672C172.806 84.512 173.003 84.432 173.238 84.432C173.462 84.432 173.648 84.512 173.798 84.672C173.958 84.8213 174.038 85.0133 174.038 85.248C174.038 85.4827 173.958 85.68 173.798 85.84C173.648 86 173.462 86.08 173.238 86.08Z" fill="#111111"/>
<line x1="43.5296" y1="27.7998" x2="65.3376" y2="10.2381" stroke="#949494" stroke-width="1.5"/>
<line x1="35.25" y1="28" x2="35.25" stroke="#949494" stroke-width="1.5"/>
<line x1="5.52964" y1="60.976" x2="27.3388" y2="43.4158" stroke="#949494" stroke-width="1.5"/>
<line x1="27.2687" y1="28.3293" x2="7.46967" y2="8.53033" stroke="#949494" stroke-width="1.5"/>
<line x1="28" y1="36.75" y2="36.75" stroke="#949494" stroke-width="1.5"/>
</svg>
