<svg width="32" height="32" viewBox="0 0 32 32" fill="none" xmlns="http://www.w3.org/2000/svg">
<path d="M16 3C16 2.20435 16.3161 1.44129 16.8787 0.87868C17.4413 0.316071 18.2044 0 19 0C19.7956 0 20.5587 0.316071 21.1213 0.87868C21.6839 1.44129 22 2.20435 22 3V4C22 4.53043 22.2107 5.03914 22.5858 5.41421C22.9609 5.78929 23.4696 6 24 6H30C30.5304 6 31.0391 6.21071 31.4142 6.58579C31.7893 6.96086 32 7.46957 32 8V14C32 14.5304 31.7893 15.0391 31.4142 15.4142C31.0391 15.7893 30.5304 16 30 16H29C28.2044 16 27.4413 16.3161 26.8787 16.8787C26.3161 17.4413 26 18.2044 26 19C26 19.7956 26.3161 20.5587 26.8787 21.1213C27.4413 21.6839 28.2044 22 29 22H30C30.5304 22 31.0391 22.2107 31.4142 22.5858C31.7893 22.9609 32 23.4696 32 24V30C32 30.5304 31.7893 31.0391 31.4142 31.4142C31.0391 31.7893 30.5304 32 30 32H24C23.4696 32 22.9609 31.7893 22.5858 31.4142C22.2107 31.0391 22 30.5304 22 30V29C22 28.2044 21.6839 27.4413 21.1213 26.8787C20.5587 26.3161 19.7956 26 19 26C18.2044 26 17.4413 26.3161 16.8787 26.8787C16.3161 27.4413 16 28.2044 16 29V30C16 30.5304 15.7893 31.0391 15.4142 31.4142C15.0391 31.7893 14.5304 32 14 32H8C7.46957 32 6.96086 31.7893 6.58579 31.4142C6.21071 31.0391 6 30.5304 6 30V24C6 23.4696 5.78929 22.9609 5.41421 22.5858C5.03914 22.2107 4.53043 22 4 22H3C2.20435 22 1.44129 21.6839 0.87868 21.1213C0.316071 20.5587 0 19.7956 0 19C0 18.2044 0.316071 17.4413 0.87868 16.8787C1.44129 16.3161 2.20435 16 3 16H4C4.53043 16 5.03914 15.7893 5.41421 15.4142C5.78929 15.0391 6 14.5304 6 14V8C6 7.46957 6.21071 6.96086 6.58579 6.58579C6.96086 6.21071 7.46957 6 8 6H14C14.5304 6 15.0391 5.78929 15.4142 5.41421C15.7893 5.03914 16 4.53043 16 4V3Z" fill="black"/>
</svg>
